<svg width="160" height="160" viewBox="0 0 160 160" fill="none" xmlns="http://www.w3.org/2000/svg">
<path d="M88.1041 159.51C34.3127 161.51 20.5376 142.675 20.374 133.008C20.374 129.03 20.9949 125.068 22.0727 121.238C35.7744 72.5586 26.831 46.5622 20.374 39.5024C12.6848 28.1684 -2.10456 6.30038 0.251274 9.50057C2.6071 12.7008 22.5008 15.5009 32.1531 16.501L20.374 0C49.1675 7.66713 111.01 16.501 131.294 16.501C148.728 16.501 148.499 22.0927 149.25 28.6014C149.552 31.2219 150.059 33.8243 150.286 36.4524L158.743 134.404C159.092 138.448 158.745 142.734 155.542 145.228C148.219 150.929 129.138 157.984 88.1041 159.51Z" fill="#FED77E"/>
<g filter="url(#filter0_i_302_2790)">
<path d="M90.3066 159.51V13.001L129.08 16.0012C140.292 16.0012 145.819 18.1732 148.06 20.5618C149.095 21.6657 149.272 23.2595 149.411 24.7669L160 140.009C159.018 153.009 106.994 159.51 90.3066 159.51Z" fill="#E29E01"/>
</g>
<path d="M57.9143 70.0044C61.1863 74.5324 70.0861 80.8716 79.5094 70.0044" stroke="#3E001A" stroke-width="5" stroke-linecap="round"/>
<path d="M121.718 70.0044C118.446 74.5324 109.546 80.8716 100.123 70.0044" stroke="#560C06" stroke-width="5" stroke-linecap="round"/>
<ellipse cx="90.3069" cy="113.007" rx="15.7055" ry="16.001" fill="white"/>
<path d="M76.5645 120.93C81.3149 117.97 93.4624 113.825 104.049 120.93C101.595 128.007 85.3988 135.008 76.5645 120.93Z" fill="#FBCAC6"/>
<path d="M90.3068 150.509C41.2266 152.009 23.8852 136.175 21.104 127.008C13.2512 155.51 65.2759 162.01 90.3068 159.51V150.509Z" fill="#E29E01"/>
<path fill-rule="evenodd" clip-rule="evenodd" d="M66.6313 87.812C65.0094 84.9816 60.7387 85.7136 60.1518 88.9225L57.3863 104.043C56.1351 103.184 54.628 102.684 53.0061 102.684C48.6691 102.684 45.1533 106.265 45.1533 110.684C45.1533 115.103 48.6691 118.684 53.0061 118.684C57.1536 118.684 60.55 115.409 60.8389 111.258C61.0946 110.943 61.2771 110.561 61.3552 110.134L64.3323 93.8563L67.5245 99.4266C68.211 100.625 69.7387 101.039 70.9366 100.353C72.1345 99.6661 72.5491 98.1384 71.8626 96.9405L66.6313 87.812ZM53.0061 114.129C51.1386 114.129 49.6247 112.587 49.6247 110.684C49.6247 108.781 51.1386 107.239 53.0061 107.239C54.8736 107.239 56.3875 108.781 56.3875 110.684C56.3875 112.587 54.8736 114.129 53.0061 114.129Z" fill="#3E001A"/>
<path fill-rule="evenodd" clip-rule="evenodd" d="M29.6759 88.2862L32.0181 75.5594L19.6673 78.7784L16.6825 93.9831C16.5665 94.5737 16.2514 95.0747 15.8205 95.4298C15.8345 95.6065 15.8417 95.7851 15.8417 95.9654C15.8417 99.5939 12.9545 102.535 9.39312 102.535C5.83169 102.535 2.94458 99.5939 2.94458 95.9654C2.94458 92.337 5.83169 89.3956 9.39312 89.3956C10.4568 89.3956 11.4604 89.658 12.3449 90.1227L15.0004 76.5953C15.1184 75.9945 15.4424 75.4866 15.8846 75.1305C16.2108 74.711 16.6727 74.3918 17.2267 74.2474L33.0371 70.1268C35.5155 69.4809 37.8256 71.6283 37.362 74.1472L34.019 92.3119C33.9417 92.7317 33.7638 93.1076 33.5146 93.4192C33.5545 93.7146 33.5751 94.0162 33.5751 94.3227C33.5751 97.9511 30.688 100.893 27.1265 100.893C23.5651 100.893 20.678 97.9511 20.678 94.3227C20.678 90.6943 23.5651 87.7528 27.1265 87.7528C28.032 87.7528 28.894 87.943 29.6759 88.2862ZM29.106 92.3388C28.6023 91.8172 27.9015 91.4937 27.1265 91.4937C25.593 91.4937 24.3498 92.7603 24.3498 94.3227C24.3498 95.8851 25.593 97.1516 27.1265 97.1516C28.6601 97.1516 29.9033 95.8851 29.9033 94.3227C29.9033 94.0949 29.8768 93.8734 29.8269 93.6613C29.4599 93.3075 29.2052 92.8459 29.106 92.3388ZM6.61639 95.9654C6.61639 97.5278 7.85957 98.7944 9.39312 98.7944C10.9267 98.7944 12.1698 97.5278 12.1698 95.9654C12.1698 94.403 10.9267 93.1365 9.39312 93.1365C7.85957 93.1365 6.61639 94.403 6.61639 95.9654Z" fill="#3E001A"/>
<defs>
<filter id="filter0_i_302_2790" x="90.3066" y="13.001" width="69.6934" height="146.509" filterUnits="userSpaceOnUse" color-interpolation-filters="sRGB">
<feFlood flood-opacity="0" result="BackgroundImageFix"/>
<feBlend mode="normal" in="SourceGraphic" in2="BackgroundImageFix" result="shape"/>
<feColorMatrix in="SourceAlpha" type="matrix" values="0 0 0 0 0 0 0 0 0 0 0 0 0 0 0 0 0 0 127 0" result="hardAlpha"/>
<feOffset dy="-9"/>
<feComposite in2="hardAlpha" operator="arithmetic" k2="-1" k3="1"/>
<feColorMatrix type="matrix" values="0 0 0 0 0 0 0 0 0 0 0 0 0 0 0 0 0 0 0.25 0"/>
<feBlend mode="normal" in2="shape" result="effect1_innerShadow_302_2790"/>
</filter>
</defs>
</svg>
