<svg width="32" height="32" viewBox="0 0 32 32" fill="none" xmlns="http://www.w3.org/2000/svg">
<g clip-path="url(#clip0_159_223)">
<path d="M2 5.65576C3.77 4.91576 6.308 4.11776 8.776 3.86976C11.436 3.60176 13.692 3.99576 15 5.37376V24.8658C13.13 23.8058 10.76 23.6598 8.574 23.8798C6.214 24.1198 3.834 24.8018 2 25.5018V5.65576ZM17 5.37376C18.308 3.99576 20.564 3.60176 23.224 3.86976C25.692 4.11776 28.23 4.91576 30 5.65576V25.5018C28.164 24.8018 25.786 24.1178 23.426 23.8818C21.238 23.6598 18.87 23.8038 17 24.8658V5.37376ZM16 3.56576C14.03 1.87176 11.174 1.61976 8.574 1.87976C5.546 2.18576 2.49 3.22376 0.586 4.08976C0.411298 4.16922 0.263151 4.29727 0.159242 4.45863C0.0553334 4.61999 5.31428e-05 4.80784 0 4.99976L0 26.9998C4.6324e-05 27.1671 0.0420743 27.3317 0.122234 27.4786C0.202394 27.6254 0.318123 27.7498 0.458822 27.8404C0.59952 27.9309 0.760689 27.9847 0.927567 27.9969C1.09444 28.009 1.2617 27.979 1.414 27.9098C3.178 27.1098 6.02 26.1478 8.774 25.8698C11.592 25.5858 13.954 26.0438 15.22 27.6238C15.3137 27.7406 15.4324 27.8348 15.5674 27.8996C15.7024 27.9644 15.8503 27.998 16 27.998C16.1497 27.998 16.2976 27.9644 16.4326 27.8996C16.5676 27.8348 16.6863 27.7406 16.78 27.6238C18.046 26.0438 20.408 25.5858 23.224 25.8698C25.98 26.1478 28.824 27.1098 30.586 27.9098C30.7383 27.979 30.9056 28.009 31.0724 27.9969C31.2393 27.9847 31.4005 27.9309 31.5412 27.8404C31.6819 27.7498 31.7976 27.6254 31.8778 27.4786C31.9579 27.3317 32 27.1671 32 26.9998V4.99976C31.9999 4.80784 31.9447 4.61999 31.8408 4.45863C31.7368 4.29727 31.5887 4.16922 31.414 4.08976C29.51 3.22376 26.454 2.18576 23.426 1.87976C20.826 1.61776 17.97 1.87176 16 3.56576Z" fill="black"/>
</g>
<defs>
<clipPath id="clip0_159_223">
<rect width="32" height="32" fill="white"/>
</clipPath>
</defs>
</svg>
