<svg width="32" height="32" viewBox="0 0 32 32" fill="none" xmlns="http://www.w3.org/2000/svg">
<g clip-path="url(#clip0_159_231)">
<path d="M28 2C28.5304 2 29.0391 2.21071 29.4142 2.58579C29.7893 2.96086 30 3.46957 30 4V28C30 28.5304 29.7893 29.0391 29.4142 29.4142C29.0391 29.7893 28.5304 30 28 30H4C3.46957 30 2.96086 29.7893 2.58579 29.4142C2.21071 29.0391 2 28.5304 2 28V4C2 3.46957 2.21071 2.96086 2.58579 2.58579C2.96086 2.21071 3.46957 2 4 2H28ZM4 0C2.93913 0 1.92172 0.421427 1.17157 1.17157C0.421427 1.92172 0 2.93913 0 4L0 28C0 29.0609 0.421427 30.0783 1.17157 30.8284C1.92172 31.5786 2.93913 32 4 32H28C29.0609 32 30.0783 31.5786 30.8284 30.8284C31.5786 30.0783 32 29.0609 32 28V4C32 2.93913 31.5786 1.92172 30.8284 1.17157C30.0783 0.421427 29.0609 0 28 0L4 0Z" fill="black"/>
<path d="M11.59 24.9118C11.4142 24.8328 11.2651 24.7047 11.1604 24.5429C11.0557 24.3811 11 24.1925 11 23.9998V7.99978C10.9999 7.80702 11.0556 7.61835 11.1603 7.45649C11.265 7.29462 11.4142 7.16646 11.59 7.08743C11.7658 7.00839 11.9607 6.98186 12.1513 7.01102C12.3418 7.04018 12.5199 7.12379 12.664 7.25178L21.664 15.2518C21.7697 15.3456 21.8544 15.4608 21.9124 15.5897C21.9703 15.7187 22.0003 15.8584 22.0003 15.9998C22.0003 16.1411 21.9703 16.2809 21.9124 16.4098C21.8544 16.5388 21.7697 16.654 21.664 16.7478L12.664 24.7478C12.5198 24.8757 12.3418 24.9593 12.1512 24.9884C11.9607 25.0175 11.7658 24.9909 11.59 24.9118Z" fill="black"/>
</g>
<defs>
<clipPath id="clip0_159_231">
<rect width="32" height="32" fill="white"/>
</clipPath>
</defs>
</svg>
