<svg width="32" height="32" viewBox="0 0 32 32" fill="none" xmlns="http://www.w3.org/2000/svg">
<g clip-path="url(#clip0_166_749)">
<path d="M4 0C2.93913 0 1.92172 0.421427 1.17157 1.17157C0.421427 1.92172 0 2.93913 0 4L0 28C0 29.0609 0.421427 30.0783 1.17157 30.8284C1.92172 31.5786 2.93913 32 4 32H28C29.0609 32 30.0783 31.5786 30.8284 30.8284C31.5786 30.0783 32 29.0609 32 28V4C32 2.93913 31.5786 1.92172 30.8284 1.17157C30.0783 0.421427 29.0609 0 28 0L4 0ZM24.06 9.94C24.3378 10.2175 24.4957 10.5929 24.4998 10.9855C24.5039 11.3781 24.3539 11.7567 24.082 12.04L16.098 22.02C15.9608 22.1678 15.7952 22.2864 15.6111 22.3687C15.427 22.4511 15.2281 22.4954 15.0265 22.4992C14.8249 22.5029 14.6245 22.4659 14.4375 22.3905C14.2505 22.315 14.0806 22.2026 13.938 22.06L8.648 16.768C8.50063 16.6307 8.38242 16.4651 8.30044 16.2811C8.21845 16.0971 8.17437 15.8985 8.17082 15.697C8.16726 15.4956 8.20431 15.2956 8.27975 15.1088C8.3552 14.922 8.46749 14.7524 8.60992 14.6099C8.75236 14.4675 8.92203 14.3552 9.1088 14.2798C9.29558 14.2043 9.49564 14.1673 9.69705 14.1708C9.89845 14.1744 10.0971 14.2185 10.2811 14.3004C10.4651 14.3824 10.6307 14.5006 10.768 14.648L14.956 18.834L21.902 9.984C22.0389 9.83594 22.2043 9.71701 22.3883 9.63434C22.5723 9.55166 22.771 9.50693 22.9726 9.50282C23.1743 9.49872 23.3747 9.53531 23.5619 9.61043C23.749 9.68555 23.9191 9.79764 24.062 9.94H24.06Z" fill="black"/>
</g>
<defs>
<clipPath id="clip0_166_749">
<rect width="32" height="32" fill="white"/>
</clipPath>
</defs>
</svg>
