<svg width="32" height="32" viewBox="0 0 32 32" fill="none" xmlns="http://www.w3.org/2000/svg">
<path d="M25.472 7.93987C25.6085 7.8006 25.7714 7.68996 25.9512 7.61443C26.131 7.5389 26.324 7.5 26.519 7.5C26.714 7.5 26.907 7.5389 27.0868 7.61443C27.2666 7.68996 27.4295 7.8006 27.566 7.93987C28.138 8.51787 28.146 9.45187 27.586 10.0399L15.76 24.0199C15.6257 24.1673 15.4628 24.2858 15.2812 24.3681C15.0995 24.4504 14.903 24.4948 14.7036 24.4985C14.5042 24.5023 14.3062 24.4653 14.1216 24.3899C13.937 24.3145 13.7697 24.2022 13.63 24.0599L6.434 16.7679C6.15647 16.4848 6.00101 16.1043 6.00101 15.7079C6.00101 15.3115 6.15647 14.9309 6.434 14.6479C6.57049 14.5086 6.7334 14.398 6.91318 14.3224C7.09296 14.2469 7.286 14.208 7.481 14.208C7.676 14.208 7.86904 14.2469 8.04882 14.3224C8.2286 14.398 8.39151 14.5086 8.528 14.6479L14.632 20.8339L25.432 7.98387L25.472 7.93987Z" fill="black"/>
</svg>
