<svg width="32" height="32" viewBox="0 0 32 32" fill="none" xmlns="http://www.w3.org/2000/svg">
<path d="M21.3333 13.3335L16 18.6668L10.6667 13.3335" stroke="black" stroke-width="1.25" stroke-linecap="round"/>
<path d="M21.3333 13.3335L16 18.6668L10.6667 13.3335" stroke="black" stroke-opacity="0.2" stroke-width="1.25" stroke-linecap="round"/>
<path d="M21.3333 13.3335L16 18.6668L10.6667 13.3335" stroke="black" stroke-opacity="0.2" stroke-width="1.25" stroke-linecap="round"/>
<path d="M21.3333 13.3335L16 18.6668L10.6667 13.3335" stroke="black" stroke-opacity="0.2" stroke-width="1.25" stroke-linecap="round"/>
<path d="M21.3333 13.3335L16 18.6668L10.6667 13.3335" stroke="black" stroke-opacity="0.2" stroke-width="1.25" stroke-linecap="round"/>
<path d="M21.3333 13.3335L16 18.6668L10.6667 13.3335" stroke="black" stroke-opacity="0.2" stroke-width="1.25" stroke-linecap="round"/>
<path d="M21.3333 13.3335L16 18.6668L10.6667 13.3335" stroke="black" stroke-opacity="0.2" stroke-width="1.25" stroke-linecap="round"/>
<path d="M21.3333 13.3335L16 18.6668L10.6667 13.3335" stroke="black" stroke-opacity="0.2" stroke-width="1.25" stroke-linecap="round"/>
<path d="M21.3333 13.3335L16 18.6668L10.6667 13.3335" stroke="black" stroke-opacity="0.2" stroke-width="1.25" stroke-linecap="round"/>
<path d="M21.3333 13.3335L16 18.6668L10.6667 13.3335" stroke="black" stroke-opacity="0.2" stroke-width="1.25" stroke-linecap="round"/>
</svg>
