<svg width="32" height="32" viewBox="0 0 32 32" fill="none" xmlns="http://www.w3.org/2000/svg">
<g clip-path="url(#clip0_162_679)">
<path d="M12 24V20H18V24H12Z" fill="black"/>
<path d="M18.586 0H8C6.93913 0 5.92172 0.421427 5.17157 1.17157C4.42143 1.92172 4 2.93913 4 4V28C4 29.0609 4.42143 30.0783 5.17157 30.8284C5.92172 31.5786 6.93913 32 8 32H24C25.0609 32 26.0783 31.5786 26.8284 30.8284C27.5786 30.0783 28 29.0609 28 28V9.414C27.9999 8.88361 27.7891 8.37499 27.414 8L20 0.586C19.625 0.210901 19.1164 0.000113275 18.586 0ZM19 7V3L25 9H21C20.4696 9 19.9609 8.78929 19.5858 8.41421C19.2107 8.03914 19 7.53043 19 7ZM6 18H26V20H20V24H26V26H20V30H18V26H12V30H10V26H6V24H10V20H6V18Z" fill="black"/>
</g>
<defs>
<clipPath id="clip0_162_679">
<rect width="32" height="32" fill="white"/>
</clipPath>
</defs>
</svg>
