<svg width="64" height="65" viewBox="0 0 64 65" fill="none" xmlns="http://www.w3.org/2000/svg">
<rect x="15.5391" y="0.242188" width="50.8917" height="50.8917" rx="12" transform="rotate(17.7777 15.5391 0.242188)" fill="#CFD1F8"/>
<rect x="6.55469" y="6.79639" width="50.8917" height="50.8917" rx="12" fill="#676FF7"/>
<path d="M13 18H51.1688" stroke="#CFD1F8" stroke-linecap="round"/>
<path d="M13 28H51.1688" stroke="#CFD1F8" stroke-linecap="round"/>
<path d="M13 38H51.1688" stroke="#CFD1F8" stroke-linecap="round"/>
<path d="M13 48H51.1688" stroke="#CFD1F8" stroke-linecap="round"/>
<path d="M27 42.7422C27 45.5047 24.2 47.7422 20.75 47.7422C17.3 47.7422 14.5 45.5047 14.5 42.7422C14.5 39.9797 17.3 37.7422 20.75 37.7422C24.2 37.7422 27 39.9822 27 42.7422ZM49.5 37.7422C49.5 40.5047 46.7 42.7422 43.25 42.7422C39.8 42.7422 37 40.5047 37 37.7422C37 34.9797 39.8 32.7422 43.25 32.7422C46.7 32.7422 49.5 34.9797 49.5 37.7422Z" fill="white"/>
<path fill-rule="evenodd" clip-rule="evenodd" d="M47 37.7422V15.2422H49.5V37.7422H47ZM27 17.7422V42.7422H24.5V17.7422H27Z" fill="white"/>
<path d="M24.5 17.5049C24.5 16.8851 24.7302 16.2875 25.1459 15.8278C25.5617 15.3682 26.1333 15.0794 26.75 15.0174L46.75 13.0174C47.0976 12.9825 47.4487 13.0208 47.7807 13.1299C48.1126 13.239 48.4179 13.4165 48.6771 13.6508C48.9362 13.8852 49.1433 14.1713 49.285 14.4907C49.4268 14.81 49.5 15.1555 49.5 15.5049V17.7424L24.5 20.2424V17.5049Z" fill="white"/>
</svg>
