<svg width="32" height="32" viewBox="0 0 32 32" fill="none" xmlns="http://www.w3.org/2000/svg">
<path d="M18 26C18 28.21 15.76 30 13 30C10.24 30 8 28.21 8 26C8 23.79 10.24 22 13 22C15.76 22 18 23.79 18 26Z" fill="black"/>
<path fill-rule="evenodd" clip-rule="evenodd" d="M18 6V26H16V6H18Z" fill="black"/>
<path d="M16 5.6402C16.0003 5.17801 16.1606 4.73019 16.4538 4.37287C16.7469 4.01555 17.1548 3.77079 17.608 3.6802L23.608 2.4802C23.898 2.42223 24.1973 2.42931 24.4843 2.50093C24.7713 2.57256 25.0388 2.70695 25.2676 2.89441C25.4964 3.08188 25.6807 3.31776 25.8074 3.58506C25.934 3.85236 25.9998 4.14442 26 4.4402V8.0002L16 10.0002V5.6402Z" fill="black"/>
</svg>
