<svg width="73" height="73" viewBox="0 0 73 73" fill="none" xmlns="http://www.w3.org/2000/svg">
<path fill-rule="evenodd" clip-rule="evenodd" d="M35.2285 8.46659C34.4611 9.11101 32.8349 10.7248 32.6518 11.0234C32.5689 11.1588 32.3228 11.5068 32.105 11.7969C31.4486 12.6708 30.9811 13.3993 30.7358 13.9304C29.7964 15.9646 29.7301 16.137 29.3385 17.5625C28.7749 19.6136 28.5781 22.7246 28.9054 24.4066C28.9644 24.7097 29.0126 25.0845 29.0126 25.2395C29.0126 25.6414 29.732 28.3215 30.0287 29.0249C30.1659 29.3505 30.2783 29.6693 30.2783 29.7335C30.2783 29.7976 30.1038 29.9847 29.8906 30.1491C29.0305 30.8127 26.9781 33.1676 26.1838 34.4023C24.7478 36.6345 23.6472 39.3165 23.2554 41.5391C23.0403 42.7586 22.9494 44.0653 23.0279 44.8086C23.1179 45.661 23.4752 46.97 23.9108 48.043C24.5181 49.5387 25.0966 50.4226 26.4077 51.8577C27.1858 52.7093 27.4668 52.9449 28.6839 53.7662C29.4882 54.309 30.1845 54.6286 31.79 55.1919C33.5221 55.7997 34.0634 55.8922 35.9384 55.9013C36.8279 55.9056 37.751 55.8771 37.9898 55.838L38.424 55.7669L38.4726 56.3512C38.5358 57.1101 38.4693 57.6076 38.2077 58.3305C37.9367 59.0794 37.5963 59.5914 36.9172 60.2716C36.5602 60.6292 35.9656 60.9775 35.2854 61.2275L34.5502 61.4979L34.6086 61.204C34.6407 61.0424 34.6683 60.5614 34.6699 60.1352C34.6727 59.3982 34.6615 59.3373 34.4414 58.8902C34.1605 58.3197 33.6111 57.8022 32.9501 57.4857C32.4058 57.2249 31.5863 57.1458 30.9125 57.2888C30.5486 57.366 30.4381 57.4337 30.0081 57.8426C29.3506 58.4681 29.0601 59.0591 29.023 59.8463C28.9702 60.9689 29.2876 61.7533 30.1573 62.6494C30.5751 63.0799 30.7833 63.2297 31.333 63.4951C32.4458 64.0326 33.0423 64.1864 34.1806 64.2295C35.0635 64.2629 35.2588 64.2472 36.0748 64.0779C37.0158 63.8825 37.5464 63.6943 38.1301 63.3487C38.8377 62.9299 39.5372 62.4157 39.8886 62.0562C40.4195 61.513 41.0769 60.5084 41.254 59.9692C41.3382 59.7133 41.4622 59.3932 41.5297 59.2578C41.7739 58.768 41.84 57.6813 41.7202 56.1289C41.6605 55.3555 41.62 54.7139 41.6303 54.7033C41.6406 54.6926 42.0951 54.5159 42.6402 54.3106C43.7174 53.9048 44.5075 53.4656 45.156 52.9121C45.3844 52.7172 45.682 52.4876 45.8173 52.4019C45.9527 52.3161 46.2058 52.0672 46.3798 51.8485C46.5539 51.6298 46.8561 51.2804 47.0516 51.072C47.4731 50.6225 48.4022 48.9236 48.6311 48.1836C48.7149 47.9129 48.844 47.5219 48.918 47.3147C49.2847 46.2888 49.3606 43.6369 49.054 42.5586C48.5876 40.9176 48.4374 40.5746 47.6534 39.3594C46.6312 37.7749 44.9487 36.4109 43.163 35.7191C42.1095 35.3109 41.8637 35.2502 40.6494 35.0976C39.4498 34.9468 38.4283 34.9938 37.4899 35.2428C36.8263 35.4189 36.7877 35.4219 36.7201 35.302C36.6809 35.2326 36.3176 34.5013 35.9128 33.677L35.1767 32.1781L35.9187 31.427C36.7082 30.6276 37.9269 29.0651 38.7532 27.793C39.3945 26.8056 40.5631 24.5573 40.7857 23.8825C40.88 23.5969 41.0989 22.965 41.2722 22.4782C41.7147 21.2356 41.8361 20.516 41.8408 19.1094C41.8467 17.3477 41.7167 16.5358 41.1205 14.6094C40.8143 13.62 40.6558 13.259 40.102 12.2891C39.5958 11.4024 39.2009 10.8342 38.4656 9.93479C37.8904 9.23117 36.273 8 35.9238 8C35.8469 8 35.5341 8.20995 35.2285 8.46659ZM35.9325 14.351C34.988 15.3178 34.3941 16.1372 33.8596 17.2109C33.3395 18.2556 33.2765 18.4118 33.0142 19.3087C32.5653 20.8435 32.4441 21.6088 32.4385 22.9414C32.4339 24.0673 32.5899 24.761 33.1072 25.9167L33.4634 26.7123L33.8117 26.3737C34.0033 26.1875 34.2887 25.8611 34.446 25.6484C34.6033 25.4357 34.912 25.0561 35.132 24.8047C35.9931 23.8209 37.418 21.642 37.862 20.6303C38.1841 19.8961 38.3694 19.0387 38.4129 18.0813C38.4587 17.0728 38.4041 16.7664 37.9356 15.4062C37.6624 14.613 37.0072 13.556 36.7875 13.554C36.7459 13.5536 36.3611 13.9123 35.9325 14.351ZM31.9303 34.8784C30.0128 36.0633 28.6992 37.3991 27.8187 39.0598C27.1025 40.4104 26.7922 41.3838 26.6196 42.8209C26.4315 44.3871 26.4415 44.672 26.7264 45.8795C27.0045 47.0582 27.1247 47.3999 27.5798 48.3061C27.8552 48.8545 28.0224 49.0713 28.7163 49.7802C29.3671 50.4451 29.6989 50.7186 30.3754 51.148C32.0451 52.2079 33.7182 52.7113 35.5869 52.716C36.3185 52.7178 37.3786 52.6096 37.7226 52.4978L37.9599 52.4208L37.9142 52.06C37.889 51.8616 37.822 51.1613 37.7653 50.5039C37.6389 49.04 37.4819 48.1592 36.8819 45.5469C36.7175 44.8314 36.5115 44.034 36.4242 43.7747C36.3369 43.5155 36.2125 43.044 36.1478 42.7269C36.0832 42.4099 35.8799 41.6886 35.696 41.1241L35.3617 40.0977L35.0523 40.4163C34.084 41.414 33.5768 42.2463 33.3358 43.2332C33.159 43.9571 33.1172 45.2459 33.2571 45.6565L33.3729 45.9963L33.1439 46.2349C32.8813 46.5085 32.3836 46.7811 31.9814 46.8715L31.7048 46.9337L31.4118 46.2376C30.9971 45.2525 30.9092 44.8639 30.8617 43.8076C30.7918 42.2559 31.049 40.8236 31.6126 39.6246C31.9017 39.0096 32.7498 37.8818 33.3634 37.2963C33.7881 36.8913 33.8355 36.8229 33.7509 36.7383C33.7272 36.7146 33.6025 36.4528 33.4737 36.1564C33.3449 35.8601 33.1924 35.5657 33.1349 35.5021C33.0774 35.4386 32.9395 35.2128 32.8285 35.0002C32.7175 34.7877 32.5807 34.605 32.5245 34.5942C32.4682 34.5833 32.2009 34.7112 31.9303 34.8784ZM38.4873 38.9859C38.4196 39.0037 38.3642 39.0599 38.3642 39.111C38.3642 39.162 38.5867 39.8637 38.8587 40.6702C39.4372 42.386 40.0567 44.6455 40.504 46.6719C40.8551 48.2625 40.9841 49.0648 41.1084 50.4336C41.1541 50.9363 41.2028 51.3597 41.2167 51.3744C41.2306 51.3892 41.4883 51.295 41.7894 51.1651C42.2365 50.9723 42.4416 50.8255 42.9076 50.3649C43.4997 49.7797 44.1502 48.8597 44.4479 48.1865C44.5426 47.9724 44.7386 47.3938 44.8835 46.9006C45.139 46.0308 45.1468 45.9713 45.1438 44.9141C45.1406 43.8192 45.0386 43.1363 44.8026 42.6289C44.2646 41.4727 44.1787 41.3319 43.6864 40.8008C42.8417 39.8891 41.9778 39.3847 40.6744 39.0418C40.3003 38.9435 38.7968 38.9051 38.4873 38.9859Z" fill="#313131"/>
</svg>
