<svg width="32" height="32" viewBox="0 0 32 32" fill="none" xmlns="http://www.w3.org/2000/svg">
<g clip-path="url(#clip0_423_3763)">
<path d="M24.292 0.291834C24.3849 0.198708 24.4953 0.124822 24.6167 0.0744094C24.7382 0.0239965 24.8685 -0.00195313 25 -0.00195312C25.1315 -0.00195312 25.2618 0.0239965 25.3833 0.0744094C25.5048 0.124822 25.6151 0.198708 25.708 0.291834L31.708 6.29183C31.8011 6.38473 31.875 6.49508 31.9254 6.61657C31.9758 6.73806 32.0018 6.8683 32.0018 6.99983C32.0018 7.13137 31.9758 7.26161 31.9254 7.3831C31.875 7.50459 31.8011 7.61494 31.708 7.70783L11.708 27.7078C11.612 27.8031 11.4977 27.878 11.372 27.9278L1.37201 31.9278C1.19028 32.0006 0.991201 32.0184 0.799448 31.979C0.607695 31.9397 0.431703 31.845 0.29329 31.7066C0.154877 31.5681 0.0601304 31.3921 0.0207954 31.2004C-0.0185395 31.0086 -0.000732459 30.8096 0.0720089 30.6278L4.07201 20.6278C4.12187 20.5021 4.19671 20.3878 4.29201 20.2918L24.292 0.291834ZM22.414 4.99983L27 9.58583L29.586 6.99983L25 2.41383L22.414 4.99983ZM25.586 10.9998L21 6.41383L8.00001 19.4138V19.9998H9.00001C9.26523 19.9998 9.51958 20.1052 9.70712 20.2927C9.89465 20.4803 10 20.7346 10 20.9998V21.9998H11C11.2652 21.9998 11.5196 22.1052 11.7071 22.2927C11.8947 22.4803 12 22.7346 12 22.9998V23.9998H12.586L25.586 10.9998ZM6.06401 21.3498L5.85201 21.5618L2.79601 29.2038L10.438 26.1478L10.65 25.9358C10.4592 25.8646 10.2948 25.7367 10.1786 25.5695C10.0625 25.4022 10.0002 25.2035 10 24.9998V23.9998H9.00001C8.73479 23.9998 8.48044 23.8945 8.2929 23.7069C8.10537 23.5194 8.00001 23.2651 8.00001 22.9998V21.9998H7.00001C6.79637 21.9997 6.59763 21.9374 6.43036 21.8212C6.2631 21.705 6.13528 21.5406 6.06401 21.3498Z" fill="black"/>
</g>
<defs>
<clipPath id="clip0_423_3763">
<rect width="32" height="32" fill="white"/>
</clipPath>
</defs>
</svg>
