<svg width="24" height="25" viewBox="0 0 24 25" fill="none" xmlns="http://www.w3.org/2000/svg">
<rect x="1" y="1.5" width="22" height="22" rx="11" fill="#8D10C3"/>
<rect x="1" y="1.5" width="22" height="22" rx="11" stroke="#8D10C3" stroke-width="2"/>
<path fill-rule="evenodd" clip-rule="evenodd" d="M6.71264 8.687C6.28664 8.687 5.94164 8.3315 6.00764 7.9115C6.42014 5.36 8.36414 3.5 11.7376 3.5C15.1126 3.5 17.3881 5.54 17.3881 8.3225C17.3881 10.3385 16.3906 11.7545 14.7031 12.782C13.0531 13.7705 12.5821 14.459 12.5821 15.797V15.842C12.5821 16.0409 12.5031 16.2317 12.3625 16.3723C12.2218 16.513 12.0311 16.592 11.8321 16.592H10.6771C10.4795 16.592 10.2899 16.514 10.1494 16.375C10.009 16.236 9.92912 16.0471 9.92714 15.8495L9.92264 15.5495C9.85814 13.718 10.6381 12.548 12.3901 11.4815C13.9351 10.5335 14.4856 9.779 14.4856 8.4395C14.4856 6.971 13.3486 5.8925 11.5966 5.8925C10.0831 5.8925 9.03164 6.686 8.68964 7.9955C8.59064 8.3765 8.27264 8.687 7.87964 8.687H6.71264ZM11.2441 21.5C12.1771 21.5 12.8866 20.789 12.8866 19.865C12.8866 18.938 12.1771 18.227 11.2441 18.227C10.3351 18.227 9.61364 18.938 9.61364 19.8635C9.61364 20.789 10.3351 21.5 11.2441 21.5Z" fill="white"/>
</svg>
