<svg width="32" height="32" viewBox="0 0 32 32" fill="none" xmlns="http://www.w3.org/2000/svg">
<path fill-rule="evenodd" clip-rule="evenodd" d="M8.95 10.916C8.382 10.916 7.922 10.442 8.01 9.882C8.56 6.48 11.152 4 15.65 4C20.15 4 23.184 6.72 23.184 10.43C23.184 13.118 21.854 15.006 19.604 16.376C17.404 17.694 16.776 18.612 16.776 20.396V20.456C16.776 20.7212 16.6706 20.9756 16.4831 21.1631C16.2956 21.3506 16.0412 21.456 15.776 21.456H14.236C13.9725 21.456 13.7197 21.352 13.5324 21.1667C13.3452 20.9813 13.2386 20.7295 13.236 20.466L13.23 20.066C13.144 17.624 14.184 16.064 16.52 14.642C18.58 13.378 19.314 12.372 19.314 10.586C19.314 8.628 17.798 7.19 15.462 7.19C13.444 7.19 12.042 8.248 11.586 9.994C11.454 10.502 11.03 10.916 10.506 10.916H8.95ZM14.992 28C16.236 28 17.182 27.052 17.182 25.82C17.182 24.584 16.236 23.636 14.992 23.636C13.78 23.636 12.818 24.584 12.818 25.818C12.818 27.052 13.78 28 14.992 28Z" fill="black"/>
</svg>
