<svg width="32" height="32" viewBox="0 0 32 32" fill="none" xmlns="http://www.w3.org/2000/svg">
<path d="M9.29199 9.29183C9.38488 9.19871 9.49523 9.12482 9.61672 9.07441C9.73821 9.024 9.86845 8.99805 9.99999 8.99805C10.1315 8.99805 10.2618 9.024 10.3833 9.07441C10.5047 9.12482 10.6151 9.19871 10.708 9.29183L16 14.5858L21.292 9.29183C21.385 9.19886 21.4953 9.12511 21.6168 9.07479C21.7383 9.02447 21.8685 8.99857 22 8.99857C22.1315 8.99857 22.2617 9.02447 22.3832 9.07479C22.5046 9.12511 22.615 9.19886 22.708 9.29183C22.801 9.38481 22.8747 9.49519 22.925 9.61667C22.9754 9.73815 23.0012 9.86835 23.0012 9.99983C23.0012 10.1313 22.9754 10.2615 22.925 10.383C22.8747 10.5045 22.801 10.6149 22.708 10.7078L17.414 15.9998L22.708 21.2918C22.801 21.3848 22.8747 21.4952 22.925 21.6167C22.9754 21.7381 23.0012 21.8683 23.0012 21.9998C23.0012 22.1313 22.9754 22.2615 22.925 22.383C22.8747 22.5045 22.801 22.6149 22.708 22.7078C22.615 22.8008 22.5046 22.8746 22.3832 22.9249C22.2617 22.9752 22.1315 23.0011 22 23.0011C21.8685 23.0011 21.7383 22.9752 21.6168 22.9249C21.4953 22.8746 21.385 22.8008 21.292 22.7078L16 17.4138L10.708 22.7078C10.615 22.8008 10.5046 22.8746 10.3832 22.9249C10.2617 22.9752 10.1315 23.0011 9.99999 23.0011C9.8685 23.0011 9.7383 22.9752 9.61682 22.9249C9.49534 22.8746 9.38496 22.8008 9.29199 22.7078C9.19901 22.6149 9.12526 22.5045 9.07494 22.383C9.02462 22.2615 8.99872 22.1313 8.99872 21.9998C8.99872 21.8683 9.02462 21.7381 9.07494 21.6167C9.12526 21.4952 9.19901 21.3848 9.29199 21.2918L14.586 15.9998L9.29199 10.7078C9.19886 10.6149 9.12497 10.5046 9.07456 10.3831C9.02415 10.2616 8.9982 10.1314 8.9982 9.99983C8.9982 9.8683 9.02415 9.73806 9.07456 9.61657C9.12497 9.49508 9.19886 9.38473 9.29199 9.29183Z" fill="black"/>
</svg>
